P2
4 16
6
2 2 2 2
2 2 2 2
2 2 2 2
2 2 2 2
2 2 2 2
2 0 0 2
2 0 0 2
2 2 2 2
2 2 2 2
2 0 0 2
2 0 0 2
2 2 2 2
6 6 6 6
6 6 6 6
6 6 6 6
6 6 6 6
