P2
22 88
6
2 2 2 2 2 2 2 2 2 2 2 2 2 2 2 2 2 2 2 2 2 2
2 2 2 2 2 2 2 2 2 2 2 2 2 2 2 2 2 2 2 2 2 2
2 2 2 2 2 2 2 2 2 2 2 2 2 2 2 2 2 2 2 2 2 2
2 2 2 2 2 2 2 2 2 2 2 2 2 2 2 2 2 2 2 2 2 2
2 2 2 2 2 2 2 2 2 2 2 2 2 2 2 2 2 2 2 2 2 2
2 2 2 2 2 2 2 2 2 2 2 2 2 2 2 2 2 2 2 2 2 2
2 2 2 2 2 2 2 2 2 2 2 2 2 2 2 2 2 2 2 2 2 2
2 2 2 2 2 2 2 2 2 2 2 2 2 2 2 2 2 2 2 2 2 2
2 2 2 2 2 2 2 2 2 2 2 2 2 2 2 2 2 2 2 2 2 2
2 2 2 2 2 2 2 2 2 2 2 2 2 2 2 2 2 2 2 2 2 2
2 2 2 2 2 2 2 2 2 2 2 2 2 2 2 2 2 2 2 2 2 2
2 2 2 2 2 2 2 2 2 2 2 2 2 2 2 2 2 2 2 2 2 2
2 2 2 2 2 2 2 2 2 2 2 2 2 2 2 2 2 2 2 2 2 2
2 2 2 2 2 2 2 2 2 2 2 2 2 2 2 2 2 2 2 2 2 2
2 2 2 2 2 2 2 2 2 2 2 2 2 2 2 2 2 2 2 2 2 2
2 2 2 2 2 2 2 2 2 2 2 2 2 2 2 2 2 2 2 2 2 2
2 2 2 2 2 2 2 2 2 2 2 2 2 2 2 2 2 2 2 2 2 2
2 2 2 2 2 2 2 2 2 2 2 2 2 2 2 2 2 2 2 2 2 2
2 2 2 2 2 2 2 2 2 2 2 2 2 2 2 2 2 2 2 2 2 2
2 2 2 2 2 2 2 2 2 2 2 2 2 2 2 2 2 2 2 2 2 2
2 2 2 2 2 2 2 2 2 2 2 2 2 2 2 2 2 2 2 2 2 2
2 2 2 2 2 2 2 2 2 2 2 2 2 2 2 2 2 2 2 2 2 2
2 2 2 2 2 2 2 2 2 2 2 2 2 2 2 2 2 2 2 2 2 2
2 2 2 2 2 2 2 2 2 2 2 2 2 2 2 2 2 2 2 2 2 2
2 2 2 2 2 2 2 2 2 2 2 2 2 2 2 2 2 2 2 2 2 2
2 2 2 2 2 2 2 2 2 2 2 2 2 2 2 2 2 2 2 2 2 2
2 2 2 2 0 0 0 0 0 0 0 0 0 0 0 0 0 0 2 2 2 2
2 2 2 2 0 0 0 0 0 0 0 0 0 0 0 0 0 0 2 2 2 2
2 2 2 2 0 0 0 0 0 0 0 0 0 0 0 0 0 0 2 2 2 2
2 2 2 2 0 0 0 0 0 0 0 0 0 0 0 0 0 0 2 2 2 2
2 2 2 2 0 0 0 0 0 0 0 0 0 0 0 0 0 0 2 2 2 2
2 2 2 2 0 0 0 0 0 0 0 0 0 0 0 0 0 0 2 2 2 2
2 2 2 2 0 0 0 0 0 0 0 0 0 0 0 0 0 0 2 2 2 2
2 2 2 2 0 0 0 0 0 0 0 0 0 0 0 0 0 0 2 2 2 2
2 2 2 2 0 0 0 0 0 0 0 0 0 0 0 0 0 0 2 2 2 2
2 2 2 2 0 0 0 0 0 0 0 0 0 0 0 0 0 0 2 2 2 2
2 2 2 2 0 0 0 0 0 0 0 0 0 0 0 0 0 0 2 2 2 2
2 2 2 2 0 0 0 0 0 0 0 0 0 0 0 0 0 0 2 2 2 2
2 2 2 2 0 0 0 0 0 0 0 0 0 0 0 0 0 0 2 2 2 2
2 2 2 2 0 0 0 0 0 0 0 0 0 0 0 0 0 0 2 2 2 2
2 2 2 2 2 2 2 2 2 2 2 2 2 2 2 2 2 2 2 2 2 2
2 2 2 2 2 2 2 2 2 2 2 2 2 2 2 2 2 2 2 2 2 2
2 2 2 2 2 2 2 2 2 2 2 2 2 2 2 2 2 2 2 2 2 2
2 2 2 2 2 2 2 2 2 2 2 2 2 2 2 2 2 2 2 2 2 2
2 2 2 2 2 2 2 2 2 2 2 2 2 2 2 2 2 2 2 2 2 2
2 2 2 2 2 2 2 2 2 2 2 2 2 2 2 2 2 2 2 2 2 2
2 2 2 2 2 2 2 2 2 2 2 2 2 2 2 2 2 2 2 2 2 2
2 2 2 2 2 2 2 2 2 2 2 2 2 2 2 2 2 2 2 2 2 2
2 2 2 2 0 0 0 0 0 0 0 0 0 0 0 0 0 0 2 2 2 2
2 2 2 2 0 0 0 0 0 0 0 0 0 0 0 0 0 0 2 2 2 2
2 2 2 2 0 0 0 0 0 0 0 0 0 0 0 0 0 0 2 2 2 2
2 2 2 2 0 0 0 0 0 0 0 0 0 0 0 0 0 0 2 2 2 2
2 2 2 2 0 0 0 0 0 0 0 0 0 0 0 0 0 0 2 2 2 2
2 2 2 2 0 0 0 0 0 0 0 0 0 0 0 0 0 0 2 2 2 2
2 2 2 2 0 0 0 0 0 0 0 0 0 0 0 0 0 0 2 2 2 2
2 2 2 2 0 0 0 0 0 0 0 0 0 0 0 0 0 0 2 2 2 2
2 2 2 2 0 0 0 0 0 0 0 0 0 0 0 0 0 0 2 2 2 2
2 2 2 2 0 0 0 0 0 0 0 0 0 0 0 0 0 0 2 2 2 2
2 2 2 2 0 0 0 0 0 0 0 0 0 0 0 0 0 0 2 2 2 2
2 2 2 2 0 0 0 0 0 0 0 0 0 0 0 0 0 0 2 2 2 2
2 2 2 2 0 0 0 0 0 0 0 0 0 0 0 0 0 0 2 2 2 2
2 2 2 2 0 0 0 0 0 0 0 0 0 0 0 0 0 0 2 2 2 2
2 2 2 2 2 2 2 2 2 2 2 2 2 2 2 2 2 2 2 2 2 2
2 2 2 2 2 2 2 2 2 2 2 2 2 2 2 2 2 2 2 2 2 2
2 2 2 2 2 2 2 2 2 2 2 2 2 2 2 2 2 2 2 2 2 2
2 2 2 2 2 2 2 2 2 2 2 2 2 2 2 2 2 2 2 2 2 2
6 6 6 6 6 6 6 6 6 6 6 6 6 6 6 6 6 6 6 6 6 6
6 6 6 6 6 6 6 6 6 6 6 6 6 6 6 6 6 6 6 6 6 6
6 6 6 6 6 6 6 6 6 6 6 6 6 6 6 6 6 6 6 6 6 6
6 6 6 6 6 6 6 6 6 6 6 6 6 6 6 6 6 6 6 6 6 6
6 6 6 6 6 6 6 6 6 6 6 6 6 6 6 6 6 6 6 6 6 6
6 6 6 6 6 6 6 6 6 6 6 6 6 6 6 6 6 6 6 6 6 6
6 6 6 6 6 6 6 6 6 6 6 6 6 6 6 6 6 6 6 6 6 6
6 6 6 6 6 6 6 6 6 6 6 6 6 6 6 6 6 6 6 6 6 6
6 6 6 6 6 6 6 6 6 6 6 6 6 6 6 6 6 6 6 6 6 6
6 6 6 6 6 6 6 6 6 6 6 6 6 6 6 6 6 6 6 6 6 6
6 6 6 6 6 6 6 6 6 6 6 6 6 6 6 6 6 6 6 6 6 6
6 6 6 6 6 6 6 6 6 6 6 6 6 6 6 6 6 6 6 6 6 6
6 6 6 6 6 6 6 6 6 6 6 6 6 6 6 6 6 6 6 6 6 6
6 6 6 6 6 6 6 6 6 6 6 6 6 6 6 6 6 6 6 6 6 6
6 6 6 6 6 6 6 6 6 6 6 6 6 6 6 6 6 6 6 6 6 6
6 6 6 6 6 6 6 6 6 6 6 6 6 6 6 6 6 6 6 6 6 6
6 6 6 6 6 6 6 6 6 6 6 6 6 6 6 6 6 6 6 6 6 6
6 6 6 6 6 6 6 6 6 6 6 6 6 6 6 6 6 6 6 6 6 6
6 6 6 6 6 6 6 6 6 6 6 6 6 6 6 6 6 6 6 6 6 6
6 6 6 6 6 6 6 6 6 6 6 6 6 6 6 6 6 6 6 6 6 6
6 6 6 6 6 6 6 6 6 6 6 6 6 6 6 6 6 6 6 6 6 6
6 6 6 6 6 6 6 6 6 6 6 6 6 6 6 6 6 6 6 6 6 6
